<?xml version="1.0" encoding="UTF-8"?>
<svg width="170px" height="38px" viewBox="0 0 170 38" version="1.1" xmlns="http://www.w3.org/2000/svg" xmlns:xlink="http://www.w3.org/1999/xlink">
    <!-- Generator: Sketch 48.2 (47327) - http://www.bohemiancoding.com/sketch -->
    <title>vip_38</title>
    <desc>Created with Sketch.</desc>
    <defs></defs>
    <g id="Artboard" stroke="none" stroke-width="1" fill="none" fill-rule="evenodd">
        <g id="vip_38" fill-rule="nonzero">
            <path d="M146.1128,17.872 L168.8456,17.872 L168.8456,27.3696 L166.4036,27.3696 L166.4036,20.112 L148.5548,20.112 L148.5548,27.3696 L146.1128,27.3696 L146.1128,17.872 Z M167.336,7.2096 L167.336,16.0576 L147.689,16.0576 L147.689,7.2096 L167.336,7.2096 Z M164.894,13.8176 L164.894,9.4496 L150.131,9.4496 L150.131,13.8176 L164.894,13.8176 Z M163.4954,28.9376 C165.0272,29.52 168.0908,30.5056 169.889,30.9088 C169.889,31.0432 169.889,33.3056 169.889,33.3056 C169.889,33.3952 169.8002,33.4624 169.7114,33.44 C166.4702,32.6112 164.4278,31.8944 162.4298,31.1104 C159.8768,30.1248 158.4116,29.1168 157.5236,27.9968 C156.6356,29.1168 155.1704,30.1248 152.6174,31.1104 C150.6194,31.872 148.577,32.6112 145.3358,33.44 C145.247,33.4624 145.1582,33.3952 145.1582,33.3056 C145.1582,33.3056 145.1582,31.0432 145.1582,30.9088 C146.9564,30.5056 150.02,29.52 151.5518,28.9376 C155.8808,27.2576 156.2138,25.9136 156.236,22.912 L156.236,21.8592 L158.8112,21.8592 L158.8112,22.912 C158.8334,25.9136 159.1664,27.2576 163.4954,28.9376 Z M90.4574,7.9488 L109.727,7.9488 L109.727,10.4128 L90.4574,10.4128 L90.4574,7.9488 Z M97.4282,19.7312 L93.3434,30.6848 L107.4626,30.6848 C107.4626,30.6848 105.2648,24.7936 105.2204,24.704 C105.1982,24.6144 105.2648,24.5248 105.3536,24.5248 C105.4424,24.5248 107.9954,24.5248 107.9954,24.5248 C107.9954,24.5248 111.1478,32.88 111.17,32.9472 C111.1922,33.0592 111.1478,33.1488 111.0368,33.1488 C110.9702,33.1488 89.7914,33.1488 89.7248,33.1488 C89.6138,33.1488 89.5472,33.0816 89.5916,32.9696 C89.6138,32.9024 93.1658,23.472 94.5866,19.7312 L87.7268,19.7312 L87.7268,17.2672 L112.4132,17.2672 L112.4132,19.7312 L97.4282,19.7312 Z M120.9824,16.0128 L137.5658,16.0128 L137.5658,18.4768 L120.9824,18.4768 L120.9824,16.0128 Z M116.9198,23.9648 L116.9198,21.4784 L141.6062,21.4784 L141.6062,23.9424 L124.8008,23.9424 L122.3144,30.6624 L136.4558,30.6624 L134.7908,26.16 C134.7686,26.0704 134.8352,25.9808 134.924,25.9808 L137.4326,25.9808 L139.9856,32.9248 C140.0522,33.0368 139.9634,33.1264 139.8746,33.1264 L118.94,33.1264 C118.8512,33.1264 118.7846,33.0368 118.829,32.9248 L122.1368,23.9648 L116.9198,23.9648 Z M129.3518,6.1568 C132.8594,8.688 136.922,11.2192 141.8948,14.1088 C141.8948,14.5344 141.8948,16.3264 141.8948,17.1552 C141.8948,17.2224 141.806,17.3344 141.6728,17.2672 C136.8332,14.4672 133.37,12.272 129.263,9.4272 C125.156,12.272 121.6928,14.4672 116.8532,17.2672 C116.72,17.3344 116.6312,17.2224 116.6312,17.1552 C116.6312,16.3264 116.6312,14.512 116.6312,14.1088 C121.604,11.2192 125.6666,8.6656 129.1742,6.1568 C129.1742,6.1568 129.2186,6.1344 129.263,6.1344 C129.3296,6.1344 129.3518,6.1568 129.3518,6.1568 Z M75.4502,7.9488 L75.4502,15.6768 L66.2372,15.6768 L66.2372,7.9488 L68.3462,7.9488 L68.3462,13.6608 L69.7892,13.6608 L69.7892,6.2912 L71.8982,6.2912 L71.8982,13.6608 L73.3412,13.6608 L73.3412,7.9488 L75.4502,7.9488 Z M65.549,14.1312 C65.66,14.1312 65.7266,14.2432 65.6822,14.288 C65.3714,15.0496 64.9496,15.968 64.4612,17.0208 L64.4612,33.664 L62.2412,33.664 L62.2412,21.3888 C62.0192,21.792 61.7972,22.1952 61.553,22.6208 L59.222,22.6208 C59.1332,22.6208 59.0444,22.5312 59.111,22.4192 C61.0202,19.1264 62.4854,16.1472 63.3512,14.1312 L65.549,14.1312 Z M66.1928,17.2672 L75.4502,17.2672 L75.4502,19.2832 L66.1928,19.2832 L66.1928,17.2672 Z M75.3836,26.9888 C75.3836,26.9888 77.1152,25.6 77.204,25.5328 C77.2928,25.4656 77.426,25.5328 77.426,25.6448 C77.426,25.712 77.426,27.9296 77.426,27.9296 L73.4744,31.1104 L72.2312,29.5424 L73.1636,28.7808 L73.1636,22.9792 L68.9234,22.9792 L68.9234,24.2784 C68.9234,26.6752 68.8124,29.296 67.658,32.9024 L65.5046,32.9024 C65.3936,32.9024 65.3492,32.8128 65.3714,32.7232 C66.5924,29.1392 66.7034,26.5856 66.7034,24.2784 L66.7034,20.9632 L75.3836,20.9632 L75.3836,26.9888 Z M81.755,26.832 C82.643,28.4448 83.8418,29.9008 85.4624,31.1776 L85.4624,33.6416 C85.4624,33.7312 85.3736,33.8208 85.2626,33.7536 C83.198,32.4096 81.6662,30.8192 80.5118,29.072 C79.3796,30.7968 77.87,32.3648 75.8942,33.6864 C75.7832,33.7536 75.6722,33.6864 75.6722,33.5744 L75.6722,31.088 C77.204,29.856 78.3806,28.4 79.2464,26.7872 C77.1596,22.1728 77.0708,16.752 77.0708,11.6896 L76.1384,11.6896 C76.0496,11.6896 75.983,11.6224 76.0052,11.5328 C76.3826,10.256 77.3594,7.0752 77.5592,6.448 L79.7126,6.448 C79.8014,6.448 79.868,6.5376 79.8458,6.6272 C79.5572,7.568 78.9578,9.5392 78.9134,9.6736 L85.2626,9.6736 L85.2626,11.6896 L84.3524,11.6896 L84.3302,12.0704 C84.1304,16.7744 83.9084,22.1952 81.755,26.832 Z M79.2908,11.6896 C79.2908,15.8784 79.3574,20.112 80.5118,23.8528 C81.7772,20.0224 81.9548,15.744 82.1102,11.9808 L82.1324,11.6896 L79.2908,11.6896 Z M61.8638,14.736 C61.8638,14.736 59.3774,14.736 59.2664,14.7136 C59.1554,14.7136 59.0888,14.6016 59.1554,14.512 C60.998,11.3984 62.4188,8.576 63.329,6.56 L65.7932,6.56 C65.9042,6.56 65.9708,6.672 65.9264,6.7616 C65.105,8.688 63.7064,11.5328 61.8638,14.736 Z" id="Combined-Shape" fill="#000000"></path>
            <path d="M41.9038961,11.6666667 C39.2545455,4.75555556 32.9402597,0 25.3896104,0 C21.1948052,0 17.3532468,1.42222222 14.5493506,3.97777778 C12.6727273,5.68888889 11.325974,7.88888889 10.5532468,10.3333333 C8.27922078,10.7111111 6.15974026,11.7333333 4.41558442,13.3111111 C1.56753247,15.8666667 0,19.6222222 0,23.8666667 C0,27.9777778 1.52337662,31.5111111 4.39350649,34.0222222 C7.35194805,36.6222222 11.6571429,38 16.8454545,38 L23.2480519,38 C23.2701299,38 23.3142857,38 23.3363636,38 L35.6337662,38 C44.8181818,38 51,32.5555556 51,24.4444444 C51,18.5555556 47.2025974,13.5111111 41.9038961,11.6666667 Z M16.8454545,33.5555556 C12.761039,33.5555556 9.44935065,32.5555556 7.30779221,30.6666667 C5.43116883,29.0222222 4.43766234,26.6666667 4.43766234,23.8666667 C4.43766234,20.9111111 5.47532468,18.3555556 7.37402597,16.6444444 C8.83116883,15.3333333 10.6857143,14.6222222 12.6506494,14.6222222 C12.9597403,14.6222222 13.2688312,14.6444444 13.6,14.6666667 C15.9402597,14.9333333 17.7727273,16.0444444 18.5896104,17.7333333 C19.2077922,18.9777778 19.1636364,20.3333333 18.5012987,21.4666667 C17.9714286,22.3333333 17.2649351,22.8888889 16.4038961,23.0666667 C15.3883117,23.2888889 14.1519481,23.0222222 13.2688312,22.4 L11.038961,26.2888889 C12.8935065,27.4666667 15.2337662,27.9111111 17.3311688,27.4444444 C19.4285714,27 21.1506494,25.7333333 22.3207792,23.7777778 C23.7558442,21.3555556 23.8662338,18.3555556 22.5857143,15.7777778 C21.2168831,13 18.5896104,11.0888889 15.2558442,10.4222222 C15.7857143,9.22222222 16.5584416,8.17777778 17.5298701,7.28888889 C19.5168831,5.46666667 22.2987013,4.46666667 25.3896104,4.46666667 C29.0545455,4.46666667 32.4545455,5.95555556 34.9272727,8.66666667 C37.4220779,11.3777778 38.7909091,15.0444444 38.7909091,19.0222222 C38.7909091,23 37.3116883,26.6444444 34.6181818,29.2888889 C31.7701299,32.0888889 27.8402597,33.5777778 23.2480519,33.5777778 L16.8454545,33.5777778 L16.8454545,33.5555556 Z M36.538961,33.5333333 C36.9363636,33.2 37.3337662,32.8444444 37.7090909,32.4888889 C41.2636364,29 43.2285714,24.2222222 43.2285714,19.0222222 C43.2285714,18.4888889 43.2064935,17.9555556 43.1623377,17.4222222 C45.2155844,19.0888889 46.5402597,21.6444444 46.5402597,24.4888889 C46.5623377,29.8222222 42.7428571,33.2222222 36.538961,33.5333333 Z" id="Shape" fill="#DBB34E"></path>
        </g>
    </g>
</svg>